# xmcd
#
# Track frame offsets:
#	150
#	15488
#	24658
#	39412
#	48598
#	60545
#	71106
#	83358
#	95090
#	108515
#	123429
#	134582
#	145511
#	157440
#	169367
#	183612
#	202310
#	213709
#	226809
#	236644
#	258711
#
# Disc length: 4440 seconds
#
# Revision: 2
# Processed by: cddbd v1.5.1PL0 Copyright (c) Steve Scherf et al.
# Submitted via: audiograbber 1.83.01
#
DISCID=40115615
DTITLE=The Best Country Album In The World Ever - Various Side Two
DYEAR=1900
DGENRE=Country
TTITLE0=Billy Ray Cyrus - Achy Breaky Heart
TTITLE1=Charley Pride - Kiss An Angel Good Morning
TTITLE2=Olivia Newton John - Banks Of The Ohio
TTITLE3=Bob Luman - Lets Think About Living
TTITLE4=Dolly Parton - Jolene
TTITLE5=Leroy Van Dyke - Walk On By
TTITLE6=Merle Haggard - Okie From Muskogee
TTITLE7=Johnny Cash - Ring Of Fire
TTITLE8=Loretta Lynn - Coal Miners Daughter
TTITLE9=Waylon Jennings - Luckenback Texas
TTITLE10=Roger Miller - King Of The Road
TTITLE11=Faron Young - Hello Walls
TTITLE12=Bobby Edwards - You're The Reason
TTITLE13=Del Reeves - Girl On A Billboard
TTITLE14=John Denver - Take Me Home Country Roads
TTITLE15=Tom T Hall - Old Dogs Children and Watermelon Wine
TTITLE16=Crystal Gayle - Don't It Make Your Brown Eyes Blue
TTITLE17=Toni Williams - The One I Sing My Love Songs To
TTITLE18=Billy Crash Craddock - Rub It In
TTITLE19=Dave Dudley - Six Days On The Road
TTITLE20= -
EXTD=
EXTT0=
EXTT1=
EXTT2=
EXTT3=
EXTT4=
EXTT5=
EXTT6=
EXTT7=
EXTT8=
EXTT9=
EXTT10=
EXTT11=
EXTT12=
EXTT13=
EXTT14=
EXTT15=
EXTT16=
EXTT17=
EXTT18=
EXTT19=
EXTT20=
PLAYORDER=
